<?xml version="1.0" standalone="no"?>
<!DOCTYPE svg PUBLIC "-//W3C//DTD SVG 20010904//EN"
 "http://www.w3.org/TR/2001/REC-SVG-20010904/DTD/svg10.dtd">
<svg version="1.0" xmlns="http://www.w3.org/2000/svg"
 width="512.000000pt" height="512.000000pt" viewBox="0 0 512.000000 512.000000"
 preserveAspectRatio="xMidYMid meet">

<g transform="translate(0.000000,512.000000) scale(0.100000,-0.100000)"
fill="#000000" stroke="none">
<path d="M1695 2536 c-240 -56 -440 -225 -520 -441 -28 -76 -26 -75 -135 -75
-171 0 -291 -64 -389 -207 -56 -82 -82 -247 -54 -345 19 -66 17 -67 -234 -70
l-221 -3 -44 -30 c-132 -94 -121 -283 21 -357 l53 -28 878 0 878 0 -54 -56
c-147 -153 -182 -386 -88 -582 68 -141 222 -265 364 -292 33 -6 549 -10 1410
-10 1484 0 1420 -3 1486 58 92 84 96 221 10 306 -59 60 -91 66 -335 66 -116 0
-211 2 -211 5 0 2 7 30 15 62 38 145 -1 296 -103 406 -103 109 -202 151 -350
145 l-93 -3 -32 80 c-89 219 -272 378 -502 435 -274 68 -574 -43 -746 -277
l-40 -53 -793 0 c-886 0 -861 -2 -928 67 -103 105 -85 258 39 335 36 22 49 23
263 28 l225 5 -2 30 c0 17 -4 64 -8 105 -13 129 27 240 119 338 97 103 164
132 325 141 l113 6 39 89 c21 50 37 91 36 92 -1 1 -27 10 -57 19 -75 23 -257
29 -335 11z"/>
</g>
</svg>
