<?xml version="1.0" standalone="no"?>
<!DOCTYPE svg PUBLIC "-//W3C//DTD SVG 20010904//EN"
 "http://www.w3.org/TR/2001/REC-SVG-20010904/DTD/svg10.dtd">
<svg version="1.0" xmlns="http://www.w3.org/2000/svg"
 width="100.000000pt" height="100.000000pt" viewBox="0 0 100.000000 100.000000"
 preserveAspectRatio="xMidYMid meet">

<g transform="translate(0.000000,100.000000) scale(0.100000,-0.100000)"
fill="#000000" stroke="none">
<path d="M562 731 c-52 -25 -57 -37 -34 -82 16 -31 22 -35 36 -27 23 13 69
-19 76 -53 3 -14 13 -25 25 -27 11 -2 28 -11 37 -19 15 -14 19 -12 37 18 26
42 27 83 3 128 -36 71 -107 96 -180 62z"/>
<path d="M391 416 c-10 -12 -6 -26 10 -26 11 0 19 29 10 35 -5 2 -14 -1 -20
-9z"/>
<path d="M540 365 c0 -8 5 -15 10 -15 6 0 10 7 10 15 0 8 -4 15 -10 15 -5 0
-10 -7 -10 -15z"/>
<path d="M446 344 c-7 -18 1 -37 13 -29 5 2 11 14 14 25 6 24 -18 28 -27 4z"/>
<path d="M357 330 c-3 -11 -1 -23 5 -26 11 -7 14 -5 22 24 5 16 3 22 -7 22 -8
0 -17 -9 -20 -20z"/>
<path d="M505 279 c-4 -11 -4 -24 0 -27 9 -9 36 28 29 39 -9 15 -22 10 -29
-12z"/>
<path d="M420 275 c0 -9 5 -15 11 -13 6 2 11 8 11 13 0 5 -5 11 -11 13 -6 2
-11 -4 -11 -13z"/>
</g>
</svg>
